<?xml version="1.0" encoding="UTF-8"?>
<svg version="1.1" xmlns="http://www.w3.org/2000/svg" width="500" height="500">
<path d="M0 0 C4.00125 -0.0825 8.0025 -0.165 12.125 -0.25 C13.37555176 -0.28641602 14.62610352 -0.32283203 15.91455078 -0.36035156 C22.26958103 -0.4238302 26.20099529 -0.32883195 31 4 C31.928125 4.804375 31.928125 4.804375 32.875 5.625 C34 7 34 7 34 9 C34.66 9 35.32 9 36 9 C40.00534462 18.75214343 41.01608545 26.02253772 37 36 C33.47450801 40.87347422 28.63123313 43.18905383 23 45 C19.28957104 45.44250052 15.66703843 45.38495894 11.9375 45.25 C10.97650391 45.23195312 10.01550781 45.21390625 9.02539062 45.1953125 C6.68250773 45.14868796 4.3418171 45.08328169 2 45 C2 44.01 2 43.02 2 42 C1.34 42 0.68 42 0 42 C0 28.14 0 14.28 0 0 Z M12 12 C12.33 18.93 12.66 25.86 13 33 C19.21866785 33.35350858 19.21866785 33.35350858 24 31 C26.77923725 26.83114413 26.9462257 22.94723575 27 18 C26.35373808 14.54439902 26.35373808 14.54439902 25 12 C22.63386544 10.81693272 21.13219264 10.86645392 18.5 10.875 C17.7059375 10.87242187 16.911875 10.86984375 16.09375 10.8671875 C13.94081466 10.86722004 13.94081466 10.86722004 12 12 Z " fill="#9462F7" transform="translate(218,207)"/>
<path d="M0 0 C19 0 19 0 23 2 C24.25 4.125 24.25 4.125 25 6 C24.01 7.485 24.01 7.485 23 9 C15.575 8.01 15.575 8.01 8 7 C8 15.91 8 24.82 8 34 C15.24069577 33.85835248 15.24069577 33.85835248 22 32 C23.13350534 29.98330173 23.13350534 29.98330173 24 28 C24.33 28.66 24.66 29.32 25 30 C24.06694014 32.71435596 23.37326623 33.78043163 20.875 35.25 C20.25625 35.4975 19.6375 35.745 19 36 C20.65 37.32 22.3 38.64 24 40 C21.05868109 40.98043964 19.17498335 41.11621202 16.11328125 41.09765625 C15.26805908 41.09515869 14.42283691 41.09266113 13.55200195 41.09008789 C12.48296631 41.08098389 11.41393066 41.07187988 10.3125 41.0625 C5.2078125 41.0315625 5.2078125 41.0315625 0 41 C0 27.47 0 13.94 0 0 Z " fill="#8B52FB" transform="translate(219,207)"/>
<path d="M0 0 C0.33 0 0.66 0 1 0 C1 13.53 1 27.06 1 41 C4.3 40.9175 7.6 40.835 11 40.75 C12.02351562 40.73420898 13.04703125 40.71841797 14.1015625 40.70214844 C20.93625315 40.45087305 26.40382192 39.13704608 31.64453125 34.56542969 C37.0734047 28.29562843 35.16879469 16.72704583 35 9 C39.05930653 13.74333332 39.69823991 18.89119819 40 25 C39.3520827 30.3333824 38.0315657 34.57401212 34.875 38.9375 C27.44439002 44.26815499 20.98322445 45.5773331 11.9375 45.25 C10.97650391 45.23195312 10.01550781 45.21390625 9.02539062 45.1953125 C6.68250773 45.14868796 4.3418171 45.08328169 2 45 C2 44.01 2 43.02 2 42 C1.34 42 0.68 42 0 42 C0 28.14 0 14.28 0 0 Z " fill="#D8C3FA" transform="translate(218,207)"/>
<path d="M0 0 C6.27 0 12.54 0 19 0 C19 0.33 19 0.66 19 1 C10.585 1.495 10.585 1.495 2 2 C1.67 14.54 1.34 27.08 1 40 C7.435 39.505 7.435 39.505 14 39 C13.67 38.34 13.34 37.68 13 37 C10.69 36.34 8.38 35.68 6 35 C6 26.09 6 17.18 6 8 C6.66 7.67 7.32 7.34 8 7 C8 15.91 8 24.82 8 34 C15.24069577 33.85835248 15.24069577 33.85835248 22 32 C23.13350534 29.98330173 23.13350534 29.98330173 24 28 C24.33 28.66 24.66 29.32 25 30 C24.06694014 32.71435596 23.37326623 33.78043163 20.875 35.25 C20.25625 35.4975 19.6375 35.745 19 36 C20.65 37.32 22.3 38.64 24 40 C21.05868109 40.98043964 19.17498335 41.11621202 16.11328125 41.09765625 C15.26805908 41.09515869 14.42283691 41.09266113 13.55200195 41.09008789 C12.48296631 41.08098389 11.41393066 41.07187988 10.3125 41.0625 C5.2078125 41.0315625 5.2078125 41.0315625 0 41 C0 27.47 0 13.94 0 0 Z " fill="#8E60E9" transform="translate(219,207)"/>
<path d="M0 0 C12.65384615 0 12.65384615 0 16 3 C16 3.66 16 4.32 16 5 C11.71 5 7.42 5 3 5 C3.165 5.86625 3.33 6.7325 3.5 7.625 C4.39266231 13.69761822 4.07639812 19.87966132 4 26 C9.445 25.01 9.445 25.01 15 24 C14.01 24.99 13.02 25.98 12 27 C8.04 27 4.08 27 0 27 C0 18.09 0 9.18 0 0 Z " fill="#D2B6FA" transform="translate(227,214)"/>
<path d="M0 0 C4.05930653 4.74333332 4.69823991 9.89119819 5 16 C4.36155268 21.25542954 3.21026589 26.18918603 -0.5 30.125 C-3 32 -3 32 -6 33 C-6 32.01 -6 31.02 -6 30 C-4.68 30 -3.36 30 -2 30 C-0.22796804 19.87410311 0.23950618 10.2455423 0 0 Z " fill="#DCC9FB" transform="translate(253,216)"/>
<path d="M0 0 C10.125 0 10.125 0 14 1 C14 1.66 14 2.32 14 3 C9.71 3 5.42 3 1 3 C1.165 3.86625 1.33 4.7325 1.5 5.625 C2.39266231 11.69761822 2.07639812 17.87966132 2 24 C7.445 23.01 7.445 23.01 13 22 C12.01 22.99 11.02 23.98 10 25 C6.7 25 3.4 25 0 25 C0 16.75 0 8.5 0 0 Z " fill="#F9EFFE" transform="translate(229,216)"/>
<path d="M0 0 C0.33 0.99 0.66 1.98 1 3 C-0.86759004 6.51968892 -2.1486353 8.57431765 -5.75 10.375 C-6.4925 10.58125 -7.235 10.7875 -8 11 C-8 10.01 -8 9.02 -8 8 C-6.68 8 -5.36 8 -4 8 C-3.67 6.35 -3.34 4.7 -3 3 C-2.01 2.67 -1.02 2.34 0 2 C0 1.34 0 0.68 0 0 Z " fill="#E5D8F8" transform="translate(255,238)"/>
<path d="M0 0 C6.4 0.49230769 6.4 0.49230769 9.4375 3.0625 C10.2109375 4.0215625 10.2109375 4.0215625 11 5 C8.125 5.1875 8.125 5.1875 5 5 C4.34 4.01 3.68 3.02 3 2 C2.01 1.34 1.02 0.68 0 0 Z " fill="#BD9FF3" transform="translate(238,207)"/>
<path d="M0 0 C0.66 0.33 1.32 0.66 2 1 C1.34 2.65 0.68 4.3 0 6 C-2.64 6.33 -5.28 6.66 -8 7 C-7.236875 6.401875 -6.47375 5.80375 -5.6875 5.1875 C-3.6516425 3.53040668 -1.8021721 1.89702326 0 0 Z " fill="#CFB0FD" transform="translate(251,240)"/>
</svg>
